<svg width="259" height="20" viewBox="0 0 259 20" fill="none" xmlns="http://www.w3.org/2000/svg">
<path d="M3 10C11.4155 17.9211 19.831 17.9211 28.2465 10C37.3144 0.850877 45.7299 0.850877 53.493 10C61.9085 19.1491 70.324 19.1491 78.7395 10C86.3078 2.69298 94.7233 2.69298 103.986 10C112.402 17.307 120.817 17.307 129.233 10C138.815 0.666666 147.23 0.666666 154.479 10C162.895 19.3333 171.31 19.3333 179.726 10C187.698 1.64912 196.114 1.64912 204.972 10C213.388 18.3509 221.803 18.3509 230.219 10C240.119 -1.29825 249.07 4.51147 256 15.8097" stroke="#7C988E" stroke-width="6" stroke-linecap="round"/>
</svg>
